<svg id="logo-slate" xmlns="http://www.w3.org/2000/svg" viewBox="0 0 34.5 34.3" width="128" height="128">
<style type="text/css">
	.primary { fill: hsl(217.2 32.6% 17.5%) }
	.danger { fill: hsl(215.3 25% 26.7%) }
	.warning { fill: hsl(215 20.2% 65.1%) }
	.success { fill: hsl(215.3 19.3% 34.5%) }
</style>
<path id="primary" class="primary" d="M4.3,7.5c5.3-7,15.4-8.6,22.5-3.4c0.3,0.2,0.6,0.5,0.8,0.7c1.6,1.1,2.5,2.5,2.2,4.4
	c-0.2,1.9-1.3,3.2-3.1,3.7c-0.3,0.1-1.1,0.3-2.3,0.2c-2.1-0.3-2.3-1.7-4.5-2.6c-0.4-0.1-2.4-0.9-4.7-0.2c-1,0.3-2,0.9-3,1.7
	c-2.3,2.2-2.7,4.9-1.8,7.9c-4.3-0.2-6.5,1.4-7.2,5C0.8,22.3-0.6,13.8,4.3,7.5z"/>
<path id="warning" class="warning" d="M4.5,25c0.1-1.5,1.1-2.5,1.5-2.9c0.3-0.3,1.6-1.3,3.3-1.2c2.3,0.2,4.2,2.5,4.1,4.7
	c-0.1,1.6-1.2,2.7-1.4,2.9c-1.3,1.3-3.1,1.6-4.8,0.9C5.4,28.4,4.3,26.7,4.5,25z"/>
<path id="success" class="success" d="M9,30.9c4-0.8,5.7-3,5.4-7.1c2,0.7,4.1,0.8,6.2-0.2c-0.2,1.8,0,3.5,1.1,4.9c1.1,1.4,2.6,2,4.4,2.2
	C22.1,33.9,13.5,34.1,9,30.9z"/>
<path id="danger" class="danger" d="M30.5,26.4c-1.1,1.8-2.5,3.1-4.7,3c-1.8-0.1-3.2-1-3.9-2.7c-0.1-0.2-0.5-1.1-0.4-2.3
	c0.1-2.3,1.7-3,2.5-5.1c0.4-1.1,0.8-2.8,0.1-5.3c1.5,0.2,3.2,0,4.6-1c1.4-1.1,2.2-2.5,2.3-4.5c0.8,1.2,2.5,4.1,2.5,8.2
	C33.6,21.8,31.3,25.3,30.5,26.4z"/>
</svg>
